# xmcd
#
# Track frame offsets:
#	150
#	15092
#	38352
#	64689
#	84262
#	100019
#	112390
#	130380
#	155135
#	170243
#	185704
#	207657
#	249553
#	282703
#
# Disc length: 4280 seconds
#
# Revision: 1
# Processed by: cddbd v1.5.2PL0 Copyright (c) Steve Scherf et al.
# Submitted via: EZCDAudioConverter 1.3.4.1
#
DISCID=cb10b60e
DTITLE=V/A - Pulp Fusion 15 2/2
DYEAR=2010
DGENRE=
TTITLE0=Captain Connors
TTITLE1=Always There
TTITLE2=Life On Mars
TTITLE3=2 For 1
TTITLE4=La Botella (The Bottle)
TTITLE5=Windy City Theme
TTITLE6=Let Your Heart Be Free
TTITLE7=Mysteries Of The World
TTITLE8=Person To Person
TTITLE9=Get Down With The Get Down
TTITLE10=Do It
TTITLE11=Afrodesia
TTITLE12=(There's) A Time And A Place
TTITLE13=People Make The World Go Round
EXTD=
EXTT0=
EXTT1=
EXTT2=
EXTT3=
EXTT4=
EXTT5=
EXTT6=
EXTT7=
EXTT8=
EXTT9=
EXTT10=
EXTT11=
EXTT12=
EXTT13=
PLAYORDER=
